 http://desibbrg.org/images/66952052392581364616.gif 
http://desibbrg.org/images/73447113186593778929.png 
http://desibbrg.org/images/65016502265330468962.png 
http://desibbrg.org/images/19246727614371010896.png 
http://desibbrg.org/images/43356585149548093875.png 
http://desibbrg.org/images/56434736635812658545.png

Info - 
Cast
Ashok Shinde
Neelam Shirke
Atul Parchure
Pushkar Shrotri
Suhas Parajape
Niyatee Rajwade
Arun Nalawade

Crew
Director - Bhagwant Deshpande

Producer - Tyagraj Khadilkar

Media Info - 
General
Complete name                  : Labad Kutli 2006 DVDRip x264 [TMB].mp4
Format                         : MPEG-4
Format profile                 : Base Media / Version 2
Codec ID                       : mp42
File size                      : 794 MiB
Duration                       : 2h 26mn
Overall bit rate mode          : Variable
Overall bit rate               : 760 Kbps

Video
ID                             : 1
Format                         : AVC
Format/Info                    : Advanced Video Codec
Format profile                 : Main@L3.0
Format settings, CABAC         : Yes
Format settings, ReFrames      : 4 frames
Codec ID                       : avc1
Codec ID/Info                  : Advanced Video Coding
Duration                       : 2h 26mn
Bit rate mode                  : Variable
Bit rate                       : 632 Kbps
Width                          : 640 pixels
Height                         : 358 pixels
Display aspect ratio           : 16:9
Frame rate mode                : Constant
Frame rate                     : 29.970 fps
Color space                    : YUV
Chroma subsampling             : 4:2:0
Bit depth                      : 8 bits
Scan type                      : Progressive
Bits/(Pixel*Frame)             : 0.092
Stream size                    : 660 MiB (83%)
Writing library                : x264 core 120
Color primaries                : BT.601 NTSC
Transfer characteristics       : BT.709
Matrix coefficients            : BT.601

Audio
ID                             : 2
Format                         : AAC
Format/Info                    : Advanced Audio Codec
Format profile                 : LC
Codec ID                       : 40
Duration                       : 2h 26mn
Bit rate mode                  : Variable
Bit rate                       : 123 Kbps
Maximum bit rate               : 151 Kbps
Channel(s)                     : 2 channels
Channel positions              : Front: L R
Sampling rate                  : 44.1 KHz
Compression mode               : Lossy
Delay relative to video        : 67ms
Stream size                    : 128 MiB (16%)

Ripper : SaketSaket

Seeding 24x7... Extreme Seeding...


Enjoy!
